<svg width="18" height="15" viewBox="0 0 18 15" fill="none" xmlns="http://www.w3.org/2000/svg">
<path fill-rule="evenodd" clip-rule="evenodd" d="M4.73762 2.27055C4.79416 2.19196 4.85695 2.09574 4.93702 1.966C4.96623 1.91866 5.04584 1.78732 5.10521 1.68937L5.10541 1.68904L5.17235 1.57873C5.83386 0.496652 6.31473 0 7.18182 0H10.3737C11.2408 0 11.7217 0.496652 12.3832 1.57873L12.45 1.68886L12.4504 1.68953C12.5098 1.78746 12.5893 1.91868 12.6185 1.966C12.6986 2.09574 12.7614 2.19196 12.8179 2.27055C12.8552 2.32238 12.8878 2.36357 12.9143 2.39394H15.1616C16.4837 2.39394 17.5556 3.46574 17.5556 4.78788V11.9697C17.5556 13.2918 16.4837 14.3636 15.1616 14.3636H2.39394C1.0718 14.3636 0 13.2918 0 11.9697V4.78788C0 3.46574 1.0718 2.39394 2.39394 2.39394H4.64121C4.66777 2.36357 4.70034 2.32238 4.73762 2.27055ZM2.39401 3.98991C1.9533 3.98991 1.59603 4.34718 1.59603 4.78789V11.9697C1.59603 12.4104 1.9533 12.7677 2.39401 12.7677H15.1617C15.6024 12.7677 15.9597 12.4104 15.9597 11.9697V4.78789C15.9597 4.34718 15.6024 3.98991 15.1617 3.98991H12.7677C12.2376 3.98991 11.8801 3.69977 11.5224 3.20251C11.4401 3.0881 11.3586 2.96316 11.2605 2.80418C11.2268 2.7497 11.1395 2.60564 11.0796 2.50681L11.0796 2.50679L11.0216 2.41118C10.6607 1.82078 10.443 1.59597 10.3738 1.59597H7.18189C7.11268 1.59597 6.89502 1.82078 6.53409 2.41118L6.47608 2.50678C6.41619 2.60561 6.32886 2.7497 6.29523 2.80418C6.19712 2.96316 6.11559 3.0881 6.03329 3.20251C5.6756 3.69977 5.31808 3.98991 4.78795 3.98991H2.39401ZM4.78805 7.97979C4.78805 10.1834 6.57439 11.9697 8.77794 11.9697C10.9815 11.9697 12.7678 10.1834 12.7678 7.97979C12.7678 5.77623 10.9815 3.9899 8.77794 3.9899C6.57439 3.9899 4.78805 5.77623 4.78805 7.97979ZM11.1717 7.97979C11.1717 9.30193 10.0999 10.3737 8.7778 10.3737C7.45566 10.3737 6.38386 9.30193 6.38386 7.97979C6.38386 6.65766 7.45566 5.58585 8.7778 5.58585C10.0999 5.58585 11.1717 6.65766 11.1717 7.97979Z" fill="#D5DDE0"/>
</svg>
