<svg width="38" height="38" viewBox="0 0 38 38" fill="none" xmlns="http://www.w3.org/2000/svg">
<g id="ant-design:credit-card-outlined">
<path id="Vector" d="M34.4375 5.9375H3.5625C2.90566 5.9375 2.375 6.46816 2.375 7.125V30.875C2.375 31.5318 2.90566 32.0625 3.5625 32.0625H34.4375C35.0943 32.0625 35.625 31.5318 35.625 30.875V7.125C35.625 6.46816 35.0943 5.9375 34.4375 5.9375ZM5.04688 8.60938H32.9531V13.0625H5.04688V8.60938ZM32.9531 29.3906H5.04688V16.3281H32.9531V29.3906ZM24.1582 27.0156H30.2812C30.4445 27.0156 30.5781 26.882 30.5781 26.7188V24.0469C30.5781 23.8836 30.4445 23.75 30.2812 23.75H24.1582C23.9949 23.75 23.8613 23.8836 23.8613 24.0469V26.7188C23.8613 26.882 23.9949 27.0156 24.1582 27.0156Z" fill="#FF5F00"/>
</g>
</svg>
