<svg width="38" height="38" viewBox="0 0 38 38" fill="none" xmlns="http://www.w3.org/2000/svg">
<path d="M14.25 33.7778C15.7074 33.7778 16.8889 32.5963 16.8889 31.1389C16.8889 29.6815 15.7074 28.5 14.25 28.5C12.7926 28.5 11.6111 29.6815 11.6111 31.1389C11.6111 32.5963 12.7926 33.7778 14.25 33.7778Z" fill="white"/>
<path d="M27.9721 33.7778C29.4296 33.7778 30.611 32.5963 30.611 31.1389C30.611 29.6815 29.4296 28.5 27.9721 28.5C26.5147 28.5 25.3333 29.6815 25.3333 31.1389C25.3333 32.5963 26.5147 33.7778 27.9721 33.7778Z" fill="white"/>
<path d="M34.939 6.74503C34.8406 6.6173 34.7144 6.51378 34.5698 6.44242C34.4253 6.37106 34.2663 6.33376 34.1051 6.33337H9.72176L9.24676 4.82392C9.19458 4.66185 9.10398 4.51481 8.98267 4.39534C8.86136 4.27586 8.71295 4.18751 8.5501 4.13781L4.22232 2.80781C4.08925 2.76692 3.94942 2.75264 3.81083 2.76578C3.67224 2.77893 3.53759 2.81924 3.41458 2.88443C3.16615 3.01607 2.98018 3.241 2.8976 3.50976C2.81501 3.77851 2.84257 4.06906 2.97421 4.3175C3.10585 4.56593 3.33079 4.75189 3.59954 4.83448L7.38898 5.99559L12.2234 21.2695L10.5029 22.6839L10.3657 22.8211C9.94016 23.3138 9.69908 23.9391 9.68368 24.5899C9.66828 25.2407 9.8795 25.8766 10.2812 26.3889C10.5689 26.7388 10.9345 27.0165 11.3487 27.1998C11.763 27.3831 12.2143 27.4669 12.6668 27.4445H30.284C30.5639 27.4445 30.8324 27.3333 31.0304 27.1353C31.2283 26.9374 31.3395 26.6689 31.3395 26.3889C31.3395 26.109 31.2283 25.8405 31.0304 25.6425C30.8324 25.4446 30.5639 25.3334 30.284 25.3334H12.4979C12.3763 25.3292 12.2579 25.2938 12.154 25.2305C12.0502 25.1672 11.9644 25.0782 11.905 24.9721C11.8455 24.866 11.8145 24.7463 11.8148 24.6247C11.8151 24.5031 11.8468 24.3836 11.9068 24.2778L14.4507 22.1667H30.7379C30.979 22.1737 31.2153 22.098 31.4073 21.952C31.5994 21.806 31.7356 21.5987 31.7934 21.3645L35.1712 7.64226C35.2033 7.48489 35.1991 7.32228 35.1588 7.1668C35.1186 7.01131 35.0434 6.86707 34.939 6.74503Z" fill="white"/>
</svg>
