<?xml version="1.0" encoding="utf-8"?>
<!-- Generator: Adobe Illustrator 25.4.1, SVG Export Plug-In . SVG Version: 6.00 Build 0)  -->
<svg version="1.1" id="Layer_1" xmlns="http://www.w3.org/2000/svg" xmlns:xlink="http://www.w3.org/1999/xlink" x="0px" y="0px"
	 viewBox="0 0 22 22" style="enable-background:new 0 0 22 22;" xml:space="preserve">
<style type="text/css">
	.st0{clip-path:url(#SVGID_00000122703199699825130730000003374874537747658388_);}
	.st1{fill:#FF5F00;}
	.st2{fill:none;stroke:#FF5F00;}
</style>
<g>
	<defs>
		<rect id="SVGID_1_" y="0" width="22" height="22"/>
	</defs>
	<clipPath id="SVGID_00000135658406436730816590000014924981791648201402_">
		<use xlink:href="#SVGID_1_"  style="overflow:visible;"/>
	</clipPath>
	<g style="clip-path:url(#SVGID_00000135658406436730816590000014924981791648201402_);">
		<path class="st1" d="M13,13.1c0-0.2,0-0.4-0.1-0.5c-0.1-0.2-0.2-0.3-0.3-0.4c-0.1-0.1-0.4-0.2-0.6-0.4c-0.3-0.1-0.6-0.2-1-0.3
			c-0.4-0.1-0.8-0.3-1.1-0.4c-0.3-0.2-0.6-0.3-0.9-0.5c-0.2-0.2-0.4-0.4-0.6-0.7C8.2,9.6,8.2,9.3,8.2,8.9c0-0.3,0.1-0.6,0.2-0.9
			C8.5,7.7,8.7,7.5,9,7.3c0.3-0.2,0.6-0.4,0.9-0.5c0.4-0.1,0.8-0.2,1.2-0.2c0.6,0,1.2,0.1,1.6,0.4c0.4,0.2,0.8,0.6,1,1
			c0.2,0.4,0.4,0.8,0.4,1.3H13c0-0.3-0.1-0.6-0.2-0.8c-0.1-0.2-0.3-0.4-0.6-0.6c-0.3-0.1-0.6-0.2-1.1-0.2c-0.4,0-0.7,0.1-1,0.2
			C9.8,7.8,9.6,8,9.5,8.2C9.4,8.4,9.3,8.7,9.3,8.9c0,0.2,0,0.3,0.1,0.5c0.1,0.1,0.2,0.3,0.4,0.4c0.2,0.1,0.4,0.2,0.6,0.3
			c0.3,0.1,0.6,0.2,0.9,0.3c0.5,0.1,0.9,0.3,1.3,0.5c0.4,0.2,0.6,0.4,0.9,0.6c0.2,0.2,0.4,0.4,0.5,0.7c0.1,0.3,0.2,0.6,0.2,0.9
			c0,0.3-0.1,0.7-0.2,0.9c-0.1,0.3-0.3,0.5-0.6,0.7c-0.3,0.2-0.6,0.4-0.9,0.5c-0.4,0.1-0.8,0.2-1.2,0.2c-0.4,0-0.8-0.1-1.2-0.2
			c-0.4-0.1-0.7-0.3-1-0.5c-0.3-0.2-0.6-0.5-0.7-0.8c-0.2-0.3-0.3-0.7-0.3-1.1H9c0,0.3,0.1,0.5,0.2,0.8c0.1,0.2,0.3,0.4,0.5,0.5
			c0.2,0.1,0.4,0.2,0.7,0.3c0.3,0.1,0.5,0.1,0.8,0.1c0.4,0,0.7-0.1,1-0.2c0.3-0.1,0.5-0.3,0.6-0.5C12.9,13.6,13,13.4,13,13.1z"/>
		<circle class="st2" cx="11" cy="11" r="10.5"/>
	</g>
</g>
</svg>
