<svg width="47" height="47" viewBox="0 0 47 47" fill="none" xmlns="http://www.w3.org/2000/svg">
<g id="carbon:delivery-truck">
<path id="Vector" d="M43.945 24.3959L39.5387 14.1147C39.4263 13.8492 39.2382 13.6227 38.9979 13.4634C38.7577 13.3041 38.4758 13.219 38.1875 13.2188H33.7812V10.2812C33.7812 9.89171 33.6265 9.51813 33.3511 9.24269C33.0756 8.96724 32.702 8.8125 32.3125 8.8125H4.40625C4.01671 8.8125 3.64313 8.96724 3.36769 9.24269C3.09224 9.51813 2.9375 9.89171 2.9375 10.2812V35.25C2.9375 35.6395 3.09224 36.0131 3.36769 36.2886C3.64313 36.564 4.01671 36.7188 4.40625 36.7188H7.54937C7.8876 37.9633 8.62597 39.062 9.65056 39.8453C10.6752 40.6286 11.929 41.053 13.2188 41.053C14.5085 41.053 15.7623 40.6286 16.7869 39.8453C17.8115 39.062 18.5499 37.9633 18.8881 36.7188H28.1119C28.4501 37.9633 29.1885 39.062 30.2131 39.8453C31.2377 40.6286 32.4915 41.053 33.7812 41.053C35.071 41.053 36.3248 40.6286 37.3494 39.8453C38.374 39.062 39.1124 37.9633 39.4506 36.7188H42.5938C42.9833 36.7188 43.3569 36.564 43.6323 36.2886C43.9078 36.0131 44.0625 35.6395 44.0625 35.25V24.9688C44.0621 24.7719 44.0222 24.5771 43.945 24.3959ZM33.7812 16.1562H37.2181L40.3612 23.5H33.7812V16.1562ZM13.2188 38.1875C12.6378 38.1875 12.0698 38.0152 11.5868 37.6924C11.1037 37.3697 10.7272 36.9109 10.5049 36.3741C10.2825 35.8374 10.2243 35.2467 10.3377 34.6769C10.451 34.1071 10.7308 33.5837 11.1416 33.1729C11.5524 32.7621 12.0759 32.4823 12.6457 32.3689C13.2155 32.2556 13.8061 32.3138 14.3429 32.5361C14.8796 32.7584 15.3384 33.1349 15.6612 33.618C15.984 34.1011 16.1562 34.669 16.1562 35.25C16.1562 36.0291 15.8468 36.7762 15.2959 37.3271C14.745 37.878 13.9978 38.1875 13.2188 38.1875ZM28.1119 33.7812H18.8881C18.5499 32.5367 17.8115 31.438 16.7869 30.6547C15.7623 29.8714 14.5085 29.447 13.2188 29.447C11.929 29.447 10.6752 29.8714 9.65056 30.6547C8.62597 31.438 7.8876 32.5367 7.54937 33.7812H5.875V11.75H30.8438V30.1975C30.1749 30.5857 29.5893 31.1021 29.1206 31.717C28.6518 32.332 28.309 33.0335 28.1119 33.7812ZM33.7812 38.1875C33.2003 38.1875 32.6323 38.0152 32.1493 37.6924C31.6662 37.3697 31.2897 36.9109 31.0674 36.3741C30.845 35.8374 30.7868 35.2467 30.9002 34.6769C31.0135 34.1071 31.2933 33.5837 31.7041 33.1729C32.1149 32.7621 32.6384 32.4823 33.2082 32.3689C33.778 32.2556 34.3686 32.3138 34.9054 32.5361C35.4421 32.7584 35.9009 33.1349 36.2237 33.618C36.5465 34.1011 36.7188 34.669 36.7188 35.25C36.7188 36.0291 36.4093 36.7762 35.8584 37.3271C35.3075 37.878 34.5603 38.1875 33.7812 38.1875ZM41.125 33.7812H39.4506C39.1258 32.5233 38.3932 31.4085 37.3674 30.6112C36.3416 29.814 35.0804 29.3792 33.7812 29.375V26.4375H41.125V33.7812Z" fill="black"/>
</g>
</svg>
