<svg width="17" height="17" viewBox="0 0 17 17" fill="none" xmlns="http://www.w3.org/2000/svg">
<path fill-rule="evenodd" clip-rule="evenodd" d="M1.43921 0L0.364682 1.07453L3.45315 4.163C3.16544 4.40144 2.8807 4.65751 2.59911 4.92983C1.96906 5.53911 1.39906 6.18959 0.897289 6.84034C0.594504 7.23302 0.37953 7.54192 0.261829 7.72596L0 8.13534L0.261829 8.54472C0.37953 8.72875 0.594504 9.03765 0.897289 9.43033C1.39906 10.0811 1.96906 10.7316 2.59911 11.3408C4.4459 13.1268 6.42758 14.2138 8.49999 14.2138C9.80756 14.2138 11.079 13.7811 12.3033 13.0131L15.5608 16.2707L16.6353 15.1961L1.43921 0ZM11.1932 11.9031L10.0439 10.7537C9.59142 11.0211 9.06361 11.1746 8.49997 11.1746C6.82145 11.1746 5.46074 9.81385 5.46074 8.13533C5.46074 7.57169 5.61418 7.04388 5.88155 6.5914L4.5336 5.24345C4.23925 5.48082 3.9463 5.74097 3.65549 6.0222C3.08244 6.57637 2.56011 7.17245 2.1007 7.76826C2.00148 7.89694 1.90979 8.01971 1.82597 8.13534C1.90979 8.25096 2.00148 8.37374 2.1007 8.50242C2.56011 9.09823 3.08244 9.69431 3.65549 10.2485C5.24611 11.7867 6.90053 12.6942 8.49999 12.6942C9.38758 12.6942 10.2921 12.4147 11.1932 11.9031ZM7.03184 7.74168C6.99826 7.86724 6.98035 7.99919 6.98035 8.13533C6.98035 8.97459 7.66071 9.65495 8.49997 9.65495C8.63611 9.65495 8.76807 9.63705 8.89362 9.60347L7.03184 7.74168ZM14.653 11.0917L13.5785 10.0172C14.0603 9.53007 14.5032 9.01614 14.8993 8.50242C14.9986 8.37374 15.0903 8.25096 15.1741 8.13534C15.0903 8.01971 14.9986 7.89694 14.8993 7.76826C14.4399 7.17245 13.9176 6.57637 13.3446 6.0222C11.7539 4.48399 10.0995 3.5765 8.50006 3.5765C8.10321 3.5765 7.70298 3.63236 7.30118 3.73987L6.09918 2.53787C6.88364 2.22509 7.68483 2.05688 8.50006 2.05688C10.5725 2.05688 12.5541 3.14388 14.4009 4.92983C15.031 5.53911 15.601 6.18959 16.1028 6.84034C16.4055 7.23302 16.6205 7.54192 16.7382 7.72596L17 8.13534L16.7382 8.54472C16.6205 8.72875 16.4055 9.03765 16.1028 9.43033C15.6688 9.99315 15.1838 10.5558 14.653 11.0917Z" fill="#D5DDE0"/>
</svg>
