<svg width="142" height="60" viewBox="0 0 142 60" fill="none" xmlns="http://www.w3.org/2000/svg">
<rect width="142" height="60" rx="14" fill="#D5DDE0"/>
<path d="M77.4351 16.0058L73.8373 16C69.7953 16 67.1832 18.7047 67.1832 22.8908V26.068H63.5657C63.2531 26.068 63 26.3237 63 26.6392V31.2425C63 31.558 63.2534 31.8134 63.5657 31.8134H67.1832V43.4291C67.1832 43.7445 67.4363 44 67.7489 44H72.4686C72.7812 44 73.0343 43.7442 73.0343 43.4291V31.8134H77.264C77.5766 31.8134 77.8297 31.558 77.8297 31.2425L77.8314 26.6392C77.8314 26.4877 77.7717 26.3427 77.6658 26.2355C77.5598 26.1283 77.4155 26.068 77.2654 26.068H73.0343V23.3747C73.0343 22.0802 73.34 21.423 75.0109 21.423L77.4346 21.4221C77.7469 21.4221 78 21.1664 78 20.8512V16.5768C78 16.2619 77.7472 16.0064 77.4351 16.0058Z" fill="white"/>
</svg>
