<svg width="32" height="33" viewBox="0 0 32 33" fill="none" xmlns="http://www.w3.org/2000/svg">
<path fill-rule="evenodd" clip-rule="evenodd" d="M2.15815 3.12048L0 6.2409L0.217523 10.9721C0.593009 19.1379 0.748802 23.1916 0.856654 27.6003C0.924892 30.3897 0.944069 30.6953 1.07208 31.0328C1.28785 31.6014 1.87687 32.3628 2.34852 32.6826L2.75627 32.9591L5.38495 32.9796L8.01363 33L7.96954 32.0478C7.94518 31.524 7.87631 29.6667 7.8164 27.9204C7.75656 26.1741 7.69134 24.59 7.6716 24.4002C7.63828 24.0804 7.58411 23.997 6.93273 23.2626C5.99762 22.2085 5.55201 21.6146 5.5075 21.3632C5.44038 20.9834 5.72516 10.8368 5.80523 10.7579C5.85065 10.7131 6.11702 10.6939 6.48684 10.709C6.96171 10.7282 7.11323 10.7595 7.18238 10.8529C7.24908 10.9428 7.28414 11.8251 7.32495 14.4421C7.35469 16.3506 7.39899 18.2353 7.42335 18.6303L7.46758 19.3485L7.72045 19.4777C7.9267 19.583 8.01062 19.5929 8.1753 19.5312C8.65563 19.351 8.62239 19.682 8.62239 15.082C8.62239 10.3361 8.5708 10.6991 9.24486 10.6991C9.94698 10.6991 9.88217 10.2573 9.88217 15.0444V19.2467L10.1179 19.3904C10.423 19.5763 10.7101 19.5722 10.9444 19.3784L11.1317 19.2235L11.2114 15.0475C11.2597 12.5155 11.3182 10.8444 11.36 10.8026C11.4738 10.6884 12.6396 10.6694 12.7329 10.7802C12.7874 10.8451 12.8501 12.4954 12.9357 16.1298L13.0597 21.3854L12.8086 21.7539C12.5769 22.0939 12.0417 22.7372 11.1839 23.7067L10.8409 24.0944L10.6731 28.5177C10.5808 30.9505 10.5176 32.9531 10.5325 32.9678C10.5475 32.9825 12.73 32.9866 15.3825 32.9769L20.2054 32.9591L20.046 29.1974C19.9292 26.4404 19.8582 25.3377 19.7804 25.0691C19.6926 24.7662 19.5621 24.5847 19.0298 24.0248C17.1998 22.1002 16.2547 20.1113 16.0756 17.8085C16.0213 17.1115 16.127 16.0042 16.3183 15.2654C16.9889 12.6749 19.0962 10.7612 21.276 10.763C22.0042 10.7636 22.5148 10.8865 23.1973 11.2253C25.1033 12.1713 26.2749 14.0109 26.5446 16.4808C26.8288 19.0847 25.8155 21.7412 23.6976 23.9445C23.3472 24.309 23.003 24.716 22.9326 24.8489C22.8209 25.0597 22.7843 25.5261 22.646 28.5071C22.5588 30.3863 22.4858 32.1645 22.4837 32.4587L22.48 32.9936H25.7557H29.0314L29.3947 32.8151C29.8694 32.5819 30.4407 31.9539 30.7825 31.2898L31.0524 30.7653L31.1014 28.5836C31.2065 23.8944 31.772 9.58695 31.9623 6.79923L32 6.24704L29.8777 3.14098L27.7553 0.0349259L16.0359 0.0174629L4.31637 0L2.15815 3.12048ZM22.3834 2.73533C22.515 2.79697 22.693 2.94454 22.7789 3.06319C22.9286 3.27033 22.9358 3.34771 22.9559 4.98736L22.9768 6.69569H16.0762H9.17557L9.19643 4.94105L9.21728 3.18633L9.39225 2.99955C9.75269 2.61475 9.49948 2.6289 16.0655 2.626C21.5324 2.62358 22.168 2.63456 22.3834 2.73533Z" fill="white"/>
</svg>
