<svg width="142" height="60" viewBox="0 0 142 60" fill="none" xmlns="http://www.w3.org/2000/svg">
<rect width="142" height="60" rx="14" fill="#D5DDE0"/>
<path d="M71.1667 27.3333V33H79.1822C78.012 36.298 74.8613 38.6667 71.1667 38.6667C66.4803 38.6667 62.6667 34.853 62.6667 30.1667C62.6667 25.4803 66.4803 21.6667 71.1667 21.6667C73.1982 21.6667 75.1532 22.3948 76.6718 23.718L80.3948 19.4453C77.8448 17.224 74.5695 16 71.1667 16C63.3552 16 57 22.3552 57 30.1667C57 37.9782 63.3552 44.3333 71.1667 44.3333C78.9782 44.3333 85.3333 37.9782 85.3333 30.1667V27.3333H71.1667Z" fill="white"/>
</svg>
