<svg width="10" height="10" viewBox="0 0 10 10" fill="none" xmlns="http://www.w3.org/2000/svg">
<g id="fluent:location-28-regular">
<g id="Group">
<path id="Vector" d="M4.99996 0.803589C6.92318 0.803589 8.48211 2.36252 8.48211 4.28573C8.48211 5.75716 7.44818 7.36073 5.40711 9.11359C5.29362 9.21108 5.14891 9.26463 4.9993 9.2645C4.84968 9.26437 4.70507 9.21057 4.59175 9.11288L4.45675 8.99573C2.50604 7.28859 1.51782 5.7243 1.51782 4.28573C1.51782 2.36252 3.07675 0.803589 4.99996 0.803589ZM4.99996 1.3393C4.21852 1.3393 3.46909 1.64973 2.91653 2.20229C2.36396 2.75485 2.05354 3.50429 2.05354 4.28573C2.05354 5.53645 2.96354 6.97752 4.80854 8.5918L4.94175 8.70716C4.95795 8.72109 4.9786 8.72875 4.99996 8.72875C5.02133 8.72875 5.04198 8.72109 5.05818 8.70716C6.99246 7.04573 7.94639 5.56609 7.94639 4.28573C7.94639 3.8988 7.87018 3.51566 7.72211 3.15818C7.57404 2.80071 7.35701 2.47589 7.0834 2.20229C6.8098 1.92869 6.48499 1.71166 6.12751 1.56359C5.77004 1.41551 5.3869 1.3393 4.99996 1.3393ZM4.99996 2.94645C5.35517 2.94645 5.69582 3.08755 5.94698 3.33871C6.19815 3.58988 6.33925 3.93053 6.33925 4.28573C6.33925 4.64093 6.19815 4.98159 5.94698 5.23275C5.69582 5.48391 5.35517 5.62502 4.99996 5.62502C4.64476 5.62502 4.30411 5.48391 4.05295 5.23275C3.80178 4.98159 3.66068 4.64093 3.66068 4.28573C3.66068 3.93053 3.80178 3.58988 4.05295 3.33871C4.30411 3.08755 4.64476 2.94645 4.99996 2.94645ZM4.99996 3.48216C4.78684 3.48216 4.58245 3.56682 4.43175 3.71752C4.28106 3.86822 4.19639 4.07261 4.19639 4.28573C4.19639 4.49885 4.28106 4.70324 4.43175 4.85394C4.58245 5.00464 4.78684 5.0893 4.99996 5.0893C5.21308 5.0893 5.41748 5.00464 5.56818 4.85394C5.71887 4.70324 5.80354 4.49885 5.80354 4.28573C5.80354 4.07261 5.71887 3.86822 5.56818 3.71752C5.41748 3.56682 5.21308 3.48216 4.99996 3.48216Z" fill="#3E4958"/>
</g>
</g>
</svg>
