<svg width="10" height="10" viewBox="0 0 10 10" fill="none" xmlns="http://www.w3.org/2000/svg">
<path fill-rule="evenodd" clip-rule="evenodd" d="M4.42859 7.75864C2.48649 7.75864 0.912109 6.11187 0.912109 4.08047C0.912109 2.04908 2.48649 0.402313 4.42859 0.402313C6.37069 0.402313 7.94508 2.04908 7.94508 4.08047C7.94508 4.93046 7.66944 5.7131 7.20655 6.33594L9.57459 8.81286L8.95296 9.46307L6.58492 6.98616C5.98945 7.47032 5.24121 7.75864 4.42859 7.75864ZM7.06603 4.08046C7.06603 5.604 5.88525 6.83908 4.42867 6.83908C2.9721 6.83908 1.79131 5.604 1.79131 4.08046C1.79131 2.55692 2.9721 1.32184 4.42867 1.32184C5.88525 1.32184 7.06603 2.55692 7.06603 4.08046Z" fill="#D5DDE0"/>
</svg>
