<svg width="38" height="24" viewBox="0 0 38 24" fill="none" xmlns="http://www.w3.org/2000/svg">
<path d="M24.6554 2.51141H13.3495V20.9773H24.6554V2.51141Z" fill="#FCFCFC" fill-opacity="0.21"/>
<path d="M14.514 11.7492C14.5126 9.97106 14.9157 8.21593 15.6927 6.61661C16.4698 5.01728 17.6004 3.61567 18.9992 2.51783C17.2668 1.15636 15.1863 0.309746 12.9955 0.0747423C10.8047 -0.160262 8.59204 0.225829 6.6103 1.18889C4.62856 2.15194 2.95775 3.65311 1.78882 5.52083C0.61989 7.38854 0 9.54745 0 11.7508C0 13.9541 0.61989 16.1131 1.78882 17.9808C2.95775 19.8485 4.62856 21.3496 6.6103 22.3127C8.59204 23.2758 10.8047 23.6619 12.9955 23.4269C15.1863 23.1918 17.2668 22.3452 18.9992 20.9838C17.6 19.8856 16.4691 18.4834 15.692 16.8835C14.9149 15.2836 14.5121 13.5278 14.514 11.7492Z" fill="#EB001B"/>
<path d="M38 11.746C37.9999 13.9495 37.3799 16.1086 36.2108 17.9764C35.0416 19.8441 33.3705 21.3453 31.3886 22.3082C29.4066 23.2711 27.1937 23.657 25.0027 23.4216C22.8118 23.1863 20.7313 22.3393 18.9991 20.9774C20.3973 19.8786 21.5276 18.4766 22.3049 16.8771C23.0821 15.2777 23.486 13.5227 23.486 11.7444C23.486 9.96613 23.0821 8.21108 22.3049 6.61166C21.5276 5.01225 20.3973 3.61025 18.9991 2.51144C20.7313 1.14954 22.8118 0.302515 25.0027 0.067174C27.1937 -0.168168 29.4066 0.217674 31.3886 1.1806C33.3705 2.14352 35.0416 3.64466 36.2108 5.51244C37.3799 7.38021 37.9999 9.53926 38 11.7428V11.746Z" fill="#F79E1B"/>
</svg>
