<svg width="54" height="34" viewBox="0 0 54 34" fill="none" xmlns="http://www.w3.org/2000/svg">
<g id="Group 51">
<path id="Vector" d="M35.0366 3.56885H18.9703V29.8099H35.0366V3.56885Z" fill="#FF5F00"/>
<path id="Vector_2" d="M20.6251 16.6934C20.6231 14.1666 21.1959 11.6725 22.3001 9.39976C23.4044 7.12704 25.0111 5.13527 26.9988 3.57519C24.537 1.64048 21.5805 0.43739 18.4673 0.103437C15.3541 -0.230515 12.2097 0.318138 9.39357 1.68669C6.57743 3.05525 4.20312 5.18849 2.54201 7.8426C0.880895 10.4967 0 13.5646 0 16.6957C0 19.8268 0.880895 22.8947 2.54201 25.5488C4.20312 28.2029 6.57743 30.3362 9.39357 31.7047C12.2097 33.0733 15.3541 33.6219 18.4673 33.288C21.5805 32.954 24.537 31.7509 26.9988 29.8162C25.0105 28.2557 23.4034 26.2631 22.2991 23.9896C21.1949 21.716 20.6224 19.2209 20.6251 16.6934Z" fill="#EB001B"/>
<path id="Vector_3" d="M53.9999 16.6917C53.9999 19.823 53.1188 22.8911 51.4574 25.5453C49.796 28.1995 47.4213 30.3327 44.6048 31.7011C41.7883 33.0695 38.6436 33.6178 35.5302 33.2833C32.4168 32.9489 29.4603 31.7452 26.9987 29.8099C28.9856 28.2484 30.5919 26.2561 31.6964 23.9833C32.8009 21.7104 33.3748 19.2164 33.3748 16.6894C33.3748 14.1624 32.8009 11.6684 31.6964 9.39551C30.5919 7.12266 28.9856 5.13035 26.9987 3.56888C29.4603 1.63356 32.4168 0.42989 35.5302 0.0954576C38.6436 -0.238975 41.7883 0.309326 44.6048 1.67769C47.4213 3.04605 49.796 5.17925 51.4574 7.83345C53.1188 10.4877 53.9999 13.5558 53.9999 16.6871V16.6917Z" fill="#F79E1B"/>
</g>
</svg>
