<svg width="29" height="29" viewBox="0 0 29 29" fill="none" xmlns="http://www.w3.org/2000/svg">
<path d="M2.86314 19.878H19.7279L18.8811 18.1533L4.81158 18.1278C4.3358 18.1278 3.92799 17.788 3.84303 17.3179L1.89459 6.41172C1.84361 6.12568 1.92008 5.83115 2.10699 5.60742C2.19937 5.49731 2.3146 5.40862 2.44468 5.34749C2.57476 5.28636 2.71659 5.25426 2.86031 5.25342L20.7587 5.19395L20.9117 4.47461C21.008 4.01582 21.4214 3.68164 21.8916 3.68164H26.267C26.5322 3.68164 26.7865 3.78697 26.9739 3.97445C27.1614 4.16193 27.2668 4.41621 27.2668 4.68135C27.2668 4.94649 27.1614 5.20077 26.9739 5.38825C26.7865 5.57573 26.5322 5.68105 26.267 5.68105H22.7015L22.0332 8.85859L20.3878 16.8251L22.5061 20.283C22.6161 20.4315 22.6824 20.6078 22.6974 20.792C22.7124 20.9762 22.6756 21.1609 22.5911 21.3252C22.4211 21.6622 22.0785 21.8746 21.699 21.8746H19.9205C20.2996 22.3782 20.5044 22.9916 20.5039 23.622C20.5039 25.2249 19.2011 26.5276 17.5982 26.5276C15.9953 26.5276 14.6925 25.2249 14.6925 23.622C14.6925 22.9904 14.9021 22.3759 15.2759 21.8746H10.7135C11.0927 22.3782 11.2975 22.9916 11.2969 23.622C11.2969 25.2249 9.9942 26.5276 8.39127 26.5276C6.78834 26.5276 5.48561 25.2249 5.48561 23.622C5.48561 22.9904 5.69518 22.3759 6.069 21.8746H2.86031C2.3109 21.8746 1.86061 21.4271 1.86061 20.8749C1.86225 20.61 1.96858 20.3566 2.1564 20.1698C2.34422 19.9831 2.59828 19.8782 2.86314 19.878ZM20.3424 7.16504L4.0356 7.21885L5.63287 16.1624L18.4421 16.1851L20.3424 7.16504ZM17.5982 24.5169C18.091 24.5169 18.4931 24.1147 18.4931 23.622C18.4931 23.1292 18.091 22.7271 17.5982 22.7271C17.1054 22.7271 16.7033 23.1292 16.7033 23.622C16.7033 23.8593 16.7976 24.0869 16.9654 24.2548C17.1332 24.4226 17.3609 24.5169 17.5982 24.5169ZM8.39127 24.5169C8.88404 24.5169 9.28619 24.1147 9.28619 23.622C9.28619 23.1292 8.88404 22.7271 8.39127 22.7271C7.89849 22.7271 7.49635 23.1292 7.49635 23.622C7.49635 23.8593 7.59063 24.0869 7.75846 24.2548C7.92629 24.4226 8.15392 24.5169 8.39127 24.5169Z" fill="#FF5F00"/>
</svg>
