<svg width="18" height="18" viewBox="0 0 18 18" fill="none" xmlns="http://www.w3.org/2000/svg">
<g id="bi:wallet2" clip-path="url(#clip0_623_111)">
<g id="Group">
<path id="Vector" d="M13.653 0.366724C13.9017 0.304516 14.1613 0.299785 14.4121 0.35289C14.6629 0.405996 14.8983 0.515543 15.1004 0.673214C15.3025 0.830885 15.4661 1.03254 15.5786 1.26286C15.6912 1.49318 15.7498 1.74612 15.75 2.00247V3.37497H16.3125C16.7601 3.37497 17.1893 3.55276 17.5057 3.86923C17.8222 4.1857 18 4.61492 18 5.06247V15.1875C18 15.635 17.8222 16.0642 17.5057 16.3807C17.1893 16.6972 16.7601 16.875 16.3125 16.875H1.6875C1.23995 16.875 0.810725 16.6972 0.494257 16.3807C0.17779 16.0642 1.10353e-07 15.635 1.10353e-07 15.1875V5.06247C-0.000156893 4.62806 0.167223 4.21032 0.4673 3.8962C0.767377 3.58209 1.17703 3.39579 1.611 3.3761L13.653 0.366724ZM6.25725 3.37497H14.625V2.00247C14.6248 1.91713 14.6052 1.83294 14.5676 1.7563C14.5301 1.67965 14.4756 1.61256 14.4083 1.56009C14.341 1.50762 14.2626 1.47116 14.1791 1.45347C14.0956 1.43578 14.0092 1.43732 13.9264 1.45797L6.25725 3.37497ZM1.6875 4.49997C1.53832 4.49997 1.39524 4.55924 1.28975 4.66473C1.18426 4.77022 1.125 4.91329 1.125 5.06247V15.1875C1.125 15.3367 1.18426 15.4797 1.28975 15.5852C1.39524 15.6907 1.53832 15.75 1.6875 15.75H16.3125C16.4617 15.75 16.6048 15.6907 16.7102 15.5852C16.8157 15.4797 16.875 15.3367 16.875 15.1875V5.06247C16.875 4.91329 16.8157 4.77022 16.7102 4.66473C16.6048 4.55924 16.4617 4.49997 16.3125 4.49997H1.6875Z" fill="#FF5F00"/>
</g>
</g>
<defs>
<clipPath id="clip0_623_111">
<rect width="18" height="18" fill="white"/>
</clipPath>
</defs>
</svg>
