<svg width="41" height="43" viewBox="0 0 41 43" fill="none" xmlns="http://www.w3.org/2000/svg">
<path fill-rule="evenodd" clip-rule="evenodd" d="M17.7173 0.16081C15.0202 0.583819 12.5257 1.51918 10.1839 2.98554C6.94057 5.01632 4.07719 8.3426 2.55269 11.8505C0.192998 17.2805 0.326406 23.4283 2.91871 28.715C3.37017 29.6359 4.50483 31.5323 4.60437 31.5323C4.62043 31.5323 5.1239 31.3337 5.72297 31.091C6.32216 30.8484 6.86813 30.6498 6.93642 30.6498C7.15362 30.6498 7.0743 30.4672 6.47282 29.5832C5.30494 27.8665 4.45534 25.8782 3.93209 23.6371C3.64518 22.4085 3.62507 22.1661 3.62584 19.9505C3.6266 17.914 3.66102 17.4203 3.86927 16.4552C5.36974 9.50254 10.5847 4.32914 17.4944 2.93889C19.0375 2.62839 21.9868 2.6007 23.504 2.88241C33.4594 4.73108 39.6924 14.4416 37.2063 24.2289C36.2663 27.9297 33.9984 31.3935 31.0524 33.628L30.1072 34.345L30.5121 34.3804C31.235 34.4435 32.7635 34.1752 33.993 33.7694C35.0868 33.4084 35.2424 33.3221 35.7231 32.811C37.0317 31.4196 38.6969 28.4236 39.4454 26.1141C40.0704 24.1856 40.2961 22.8034 40.3573 20.5286C40.4211 18.1582 40.298 16.961 39.7819 14.9317C37.8002 7.13942 31.4332 1.35891 23.504 0.153199C22.1395 -0.0542801 19.0625 -0.0503092 17.7173 0.16081ZM18.7707 4.40238C12.8504 5.15321 7.77466 9.40713 5.93286 15.1618C4.74215 18.8819 5.01049 22.9802 6.6779 26.5408C7.13734 27.5219 8.06431 29.0341 8.61443 29.6999L8.87764 30.0185L11.6566 30.0369C14.0591 30.0527 14.594 30.0884 15.606 30.3005C17.2442 30.644 19.1748 31.2868 21.9744 32.421C24.3637 33.3889 25.946 33.9173 26.7818 34.0262C27.1555 34.0749 27.342 34.0116 28.0672 33.5897C29.4924 32.7606 30.6304 31.8657 31.7437 30.6989C33.8839 28.4557 35.1506 26.0342 35.8087 22.9287C36.1562 21.2881 36.1592 18.5142 35.815 16.8964C35.1362 13.7057 33.7992 11.2117 31.535 8.91243C29.2763 6.61858 26.7863 5.26362 23.6247 4.60765C22.3598 4.34524 20.006 4.24564 18.7707 4.40238ZM21.9939 11.1346C22.4639 11.1999 23.1283 11.3667 23.4704 11.5053C24.1199 11.7685 25.6289 12.6735 25.8338 12.9228C25.924 13.0326 25.7718 13.3267 25.2 14.1483C24.7861 14.7429 24.4269 15.2502 24.4016 15.2757C24.3765 15.3011 23.9429 15.1014 23.4383 14.8319C21.7261 13.9176 20.1618 13.8717 19.33 14.7115C19.0361 15.0082 18.9698 15.1609 18.9698 15.5419C18.9698 15.9448 19.0333 16.0722 19.4341 16.4723C19.8149 16.8525 20.1881 17.0499 21.507 17.5681C24.5723 18.7726 25.8741 19.9941 26.2115 21.9826C26.6287 24.4417 25.0814 26.6823 22.5501 27.2847C21.669 27.4945 19.9821 27.4937 19.0974 27.2832C17.8494 26.9861 15.893 25.9141 15.2203 25.1585C15.026 24.9403 15.0394 24.911 15.8564 23.7659L16.691 22.596L17.1475 22.9696C18.2658 23.8849 19.5859 24.3879 20.8712 24.3884C22.0749 24.3891 22.9001 23.9394 23.1325 23.1563C23.2946 22.6099 23.2046 22.2596 22.7748 21.7654C22.3614 21.29 21.8015 20.9944 20.2809 20.4486C17.2908 19.3755 16.073 18.1144 15.9394 15.9531C15.7728 13.2575 17.3482 11.5346 20.3901 11.0863C20.9108 11.0096 21.1433 11.0166 21.9939 11.1346ZM10.2126 31.3158C7.13811 31.5438 3.89571 32.9533 0.918266 35.3557C0.325094 35.8343 0.160877 36.0363 0.0611225 36.4105C-0.0983971 37.0087 0.0554405 37.5502 0.509525 37.9896C0.803106 38.2735 0.928209 38.3159 1.47287 38.3159C2.06124 38.3159 2.14099 38.282 2.80409 37.7509C4.91991 36.0561 7.18564 34.9216 9.30025 34.4983C10.2608 34.306 13.0357 34.3064 14.2064 34.4989C15.6872 34.7425 17.2888 35.2573 20.0624 36.3813C24.173 38.0469 25.7678 38.4814 28.5592 38.6958C32.573 39.0043 36.0411 38.0532 39.7053 35.6395C40.7128 34.9758 40.8904 34.7655 40.9852 34.1244C41.0676 33.5674 40.802 33.0126 40.2866 32.6651C39.6449 32.2322 39.2851 32.3162 37.8171 33.2409C34.8162 35.1312 32.2147 35.857 29.0763 35.6794C26.6777 35.5437 25.2088 35.1498 21.4281 33.6284C16.9603 31.8306 15.491 31.4587 12.1137 31.2706C11.708 31.248 10.8526 31.2683 10.2126 31.3158ZM10.2836 35.6143C8.24874 35.926 5.28036 37.3632 4.82169 38.2586C4.4797 38.9263 4.68173 39.9102 5.23611 40.2769C5.87419 40.6989 6.60579 40.6021 7.41552 39.9882C8.48802 39.175 10.2581 38.5916 11.6525 38.5916C13.4496 38.5916 14.8548 38.9547 18.4781 40.3552C22.5834 41.9422 24.3682 42.4705 26.8505 42.8337C28.3371 43.0514 31.4566 43.0562 32.8458 42.8432C33.9429 42.6751 35.5966 42.2271 36.2162 41.9302C36.9641 41.572 37.238 40.4993 36.7748 39.7427C36.4672 39.2402 35.7394 38.9594 35.17 39.1235C32.3063 39.9487 30.9118 40.1168 28.5377 39.9233C26.0104 39.7172 24.2487 39.2782 21.1003 38.0697C17.34 36.6261 16.5958 36.3624 15.4188 36.0568C13.486 35.5548 11.6853 35.3997 10.2836 35.6143Z" fill="white"/>
</svg>
