<svg width="30" height="29" viewBox="0 0 30 29" fill="none" xmlns="http://www.w3.org/2000/svg">
<g id="Group">
<path id="Vector" d="M22.755 0.611288C23.1695 0.507607 23.6021 0.499722 24.0201 0.588232C24.4381 0.676742 24.8305 0.85932 25.1673 1.12211C25.5042 1.38489 25.7768 1.72098 25.9644 2.10485C26.152 2.48872 26.2497 2.91028 26.25 3.33754V5.62504H27.1875C27.9334 5.62504 28.6488 5.92135 29.1762 6.4488C29.7037 6.97625 30 7.69162 30 8.43754V25.3125C30 26.0585 29.7037 26.7738 29.1762 27.3013C28.6488 27.8287 27.9334 28.125 27.1875 28.125H2.8125C2.06658 28.125 1.35121 27.8287 0.823762 27.3013C0.296316 26.7738 1.83922e-07 26.0585 1.83922e-07 25.3125V8.43754C-0.000261489 7.71351 0.278704 7.01728 0.778833 6.49375C1.27896 5.97022 1.96172 5.65974 2.685 5.62691L22.755 0.611288ZM10.4288 5.62504H24.375V3.33754C24.3747 3.19529 24.342 3.05499 24.2794 2.92724C24.2168 2.7995 24.126 2.68767 24.0138 2.60023C23.9016 2.51279 23.771 2.45202 23.6318 2.42254C23.4927 2.39305 23.3486 2.39561 23.2106 2.43004L10.4288 5.62504ZM2.8125 7.50004C2.56386 7.50004 2.3254 7.59881 2.14959 7.77463C1.97377 7.95044 1.875 8.1889 1.875 8.43754V25.3125C1.875 25.5612 1.97377 25.7996 2.14959 25.9755C2.3254 26.1513 2.56386 26.25 2.8125 26.25H27.1875C27.4361 26.25 27.6746 26.1513 27.8504 25.9755C28.0262 25.7996 28.125 25.5612 28.125 25.3125V8.43754C28.125 8.1889 28.0262 7.95044 27.8504 7.77463C27.6746 7.59881 27.4361 7.50004 27.1875 7.50004H2.8125Z" fill="#FF5F00"/>
</g>
</svg>
