<svg width="26" height="26" viewBox="0 0 26 26" fill="none" xmlns="http://www.w3.org/2000/svg">
<g clip-path="url(#clip0_608_20)">
<path d="M19.721 0.529767C20.0802 0.43991 20.4552 0.433076 20.8174 0.509785C21.1797 0.586493 21.5197 0.744728 21.8117 0.972475C22.1037 1.20022 22.3399 1.4915 22.5025 1.82418C22.6651 2.15687 22.7497 2.52223 22.75 2.89252V4.87502H23.5625C24.209 4.87502 24.829 5.13182 25.2861 5.58894C25.7432 6.04606 26 6.66605 26 7.31252V21.9375C26 22.584 25.7432 23.204 25.2861 23.6611C24.829 24.1182 24.209 24.375 23.5625 24.375H2.4375C1.79104 24.375 1.17105 24.1182 0.713927 23.6611C0.256807 23.204 1.59399e-07 22.584 1.59399e-07 21.9375V7.31252C-0.000226623 6.68503 0.241544 6.08163 0.674988 5.6279C1.10843 5.17418 1.70016 4.90509 2.327 4.87664L19.721 0.529767ZM9.03825 4.87502H21.125V2.89252C21.1247 2.76924 21.0964 2.64764 21.0422 2.53693C20.9879 2.42622 20.9092 2.3293 20.812 2.25352C20.7147 2.17773 20.6015 2.12507 20.4809 2.09951C20.3603 2.07396 20.2355 2.07618 20.1159 2.10602L9.03825 4.87502ZM2.4375 6.50002C2.22201 6.50002 2.01535 6.58562 1.86298 6.73799C1.7106 6.89037 1.625 7.09703 1.625 7.31252V21.9375C1.625 22.153 1.7106 22.3597 1.86298 22.512C2.01535 22.6644 2.22201 22.75 2.4375 22.75H23.5625C23.778 22.75 23.9847 22.6644 24.137 22.512C24.2894 22.3597 24.375 22.153 24.375 21.9375V7.31252C24.375 7.09703 24.2894 6.89037 24.137 6.73799C23.9847 6.58562 23.778 6.50002 23.5625 6.50002H2.4375Z" fill="#FF5F00"/>
<path d="M13.4451 15.609C12.4802 15.3317 11.7771 14.9918 11.3357 14.5895C10.8982 14.1832 10.6794 13.6832 10.6794 13.0895C10.6794 12.4176 10.947 11.8629 11.4822 11.4254C12.0212 10.984 12.7205 10.7633 13.5798 10.7633C14.1658 10.7633 14.6873 10.8766 15.1443 11.1031C15.6052 11.3297 15.9607 11.6422 16.2107 12.0406C16.4646 12.4391 16.5916 12.8746 16.5916 13.3473H15.4607C15.4607 12.8317 15.2966 12.4274 14.9685 12.1344C14.6404 11.8375 14.1775 11.6891 13.5798 11.6891C13.0251 11.6891 12.5916 11.8121 12.2791 12.0582C11.9705 12.3004 11.8162 12.6383 11.8162 13.0719C11.8162 13.4196 11.9626 13.7145 12.2556 13.9567C12.5525 14.1949 13.0544 14.4137 13.7615 14.6129C14.4724 14.8121 15.0271 15.0328 15.4255 15.275C15.8279 15.5133 16.1248 15.7926 16.3162 16.1129C16.5115 16.4332 16.6091 16.8102 16.6091 17.2438C16.6091 17.9352 16.3396 18.4899 15.8005 18.9078C15.2615 19.3219 14.5408 19.5289 13.6384 19.5289C13.0525 19.5289 12.5056 19.4176 11.9978 19.1949C11.49 18.9684 11.0974 18.6598 10.8201 18.2692C10.5466 17.8785 10.4099 17.4352 10.4099 16.9391H11.5408C11.5408 17.4547 11.7302 17.8629 12.1091 18.1637C12.4919 18.4606 13.0017 18.609 13.6384 18.609C14.2322 18.609 14.6873 18.4879 15.0037 18.2457C15.3201 18.0035 15.4783 17.6735 15.4783 17.2555C15.4783 16.8375 15.3318 16.5153 15.0388 16.2887C14.7458 16.0582 14.2146 15.8317 13.4451 15.609Z" fill="#FF5F00"/>
</g>
<defs>
<clipPath id="clip0_608_20">
<rect width="26" height="26" fill="white"/>
</clipPath>
</defs>
</svg>
