<svg width="40" height="40" viewBox="0 0 40 40" fill="none" xmlns="http://www.w3.org/2000/svg">
<path d="M33.3333 36.6666H6.66667C6.22464 36.6666 5.80072 36.4911 5.48816 36.1785C5.17559 35.8659 5 35.442 5 35V4.99998C5 4.55795 5.17559 4.13403 5.48816 3.82147C5.80072 3.50891 6.22464 3.33331 6.66667 3.33331H33.3333C33.7754 3.33331 34.1993 3.50891 34.5118 3.82147C34.8244 4.13403 35 4.55795 35 4.99998V35C35 35.442 34.8244 35.8659 34.5118 36.1785C34.1993 36.4911 33.7754 36.6666 33.3333 36.6666ZM15 9.99998H11.6667V13.3333C11.6667 15.5435 12.5446 17.6631 14.1074 19.2259C15.6702 20.7887 17.7899 21.6666 20 21.6666C22.2101 21.6666 24.3298 20.7887 25.8926 19.2259C27.4554 17.6631 28.3333 15.5435 28.3333 13.3333V9.99998H25V13.3333C25 14.6594 24.4732 15.9312 23.5355 16.8688C22.5979 17.8065 21.3261 18.3333 20 18.3333C18.6739 18.3333 17.4021 17.8065 16.4645 16.8688C15.5268 15.9312 15 14.6594 15 13.3333V9.99998Z" fill="white"/>
</svg>
