<svg width="99" height="142" viewBox="0 0 99 142" fill="none" xmlns="http://www.w3.org/2000/svg">
<path fill-rule="evenodd" clip-rule="evenodd" d="M48.2054 0.0638988C44.1743 0.395125 40.3153 1.97128 36.9758 4.6505C36.0251 5.41323 34.2295 7.21102 33.4845 8.14609C30.6445 11.7105 28.7865 15.8089 27.9134 20.4348C27.6794 21.6746 27.5309 22.8601 27.4772 23.9186L27.4336 24.7764H16.8203C5.10918 24.7764 5.80095 24.7502 5.19797 25.2159C4.75862 25.5552 4.50494 26.0609 4.46254 26.6819C4.44336 26.9627 5.10311 42.2078 5.92866 60.56C7.56239 96.8758 7.4503 94.8903 7.95431 96.4556C8.89152 99.3662 11.083 101.592 13.7843 102.377C15.0185 102.736 12.9088 102.715 49.426 102.715C86.0319 102.715 83.8703 102.736 85.2072 102.366C85.9454 102.161 87.3045 101.477 87.9999 100.959C89.9607 99.5005 91.277 97.2835 91.6551 94.803C91.7169 94.3979 92.4041 80.9227 93.4129 60.3356C95.0557 26.8098 95.0682 26.5302 94.9447 26.1368C94.7945 25.6584 94.3983 25.2004 93.9376 24.9725L93.6119 24.8114L82.8586 24.7929L72.1053 24.7743L72.0667 24.3377C72.0455 24.0976 71.9944 23.523 71.9532 23.0608C71.3741 16.562 68.4635 10.2923 64.047 6.02954C59.5904 1.72815 53.9234 -0.40591 48.2054 0.0638988ZM52.0633 6.17407C54.0668 6.55522 55.8234 7.2641 57.5169 8.37501C61.2688 10.8362 64.1347 15.0906 65.334 19.9796C65.6783 21.383 65.8491 22.5176 65.985 24.3037L66.021 24.7764H49.7614H33.5017L33.5465 23.9186C33.6279 22.3602 33.9835 20.3825 34.4609 18.8327C35.6124 15.0955 37.5839 11.973 40.2406 9.67911C42.4785 7.74673 44.9587 6.57875 47.8132 6.11287C48.6205 5.98115 51.2479 6.01896 52.0633 6.17407ZM52.1295 37.6926C56.0854 38.2049 59.5209 39.3867 62.8599 41.3837C63.7074 41.8904 64.1117 42.2385 64.1826 42.522C64.245 42.7716 64.0714 43.1412 63.3727 44.2465C63.0936 44.6879 62.7603 45.2224 62.6319 45.4343C62.1369 46.2514 61.977 46.257 60.7602 45.5011C57.3837 43.4034 53.9284 42.3316 49.8096 42.1044C48.3816 42.0257 46.6807 42.2645 45.2411 42.746C42.638 43.6167 40.5601 45.4437 39.6868 47.6297C39.2049 48.8357 39.046 49.8563 39.1689 50.9534C39.5393 54.2583 41.9692 56.7018 46.8802 58.7081C47.4127 58.9257 48.5721 59.3486 49.4567 59.648C52.4694 60.6677 54.5746 61.5074 56.5753 62.4876C62.3408 65.3122 65.3473 68.4713 66.237 72.6396C66.4539 73.6563 66.5036 75.6756 66.343 76.9483C65.7566 81.5938 63.158 85.3111 59.0514 87.3787C57.3217 88.2496 55.3838 88.8146 52.8786 89.1783C51.7519 89.3419 49.1122 89.3406 47.6236 89.1757C43.3925 88.707 39.2189 87.3507 36.2783 85.4889C34.6346 84.4481 32.4814 82.8433 32.3829 82.5855C32.2822 82.3219 32.3777 82.1336 33.3538 80.6729C34.4721 78.9994 34.6721 78.7669 34.9937 78.7669C35.2691 78.7669 35.4177 78.8501 35.9486 79.3014C37.0395 80.2286 39.0119 81.4917 40.533 82.2373C43.8349 83.8558 47.532 84.6958 50.4971 84.5012C54.2215 84.2567 57.2455 83.0848 59.2139 81.1232C60.2813 80.0594 60.9493 78.9273 61.3326 77.5324C61.5053 76.9038 61.5224 76.7334 61.521 75.6508C61.5194 74.3469 61.4455 73.9446 61.0042 72.8382C60.1113 70.5995 57.9404 68.5455 54.7962 66.9646C53.5516 66.3388 52.605 65.9602 50.6842 65.3199C48.0103 64.4285 44.109 62.9012 42.2269 62.009C40.3948 61.1405 38.2799 59.5521 37.0066 58.0884C34.9116 55.6801 33.9692 53.0401 34.104 49.9577C34.268 46.2056 36.1663 42.8205 39.417 40.4833C41.5966 38.9163 44.3632 37.9093 47.3661 37.5901C48.201 37.5013 51.1413 37.5646 52.1295 37.6926ZM6.49558 111.129C3.62597 111.493 1.35543 113.299 0.697633 115.741C0.530165 116.363 0.529538 117.711 0.696377 118.32C0.962609 119.292 1.44583 120.105 2.20198 120.853C3.34474 121.983 4.66244 122.639 8.05049 123.765C10.8425 124.692 12.099 125.54 12.7661 126.945C12.9682 127.371 12.982 127.45 12.9788 128.171C12.9749 129.06 12.8515 129.467 12.3886 130.116C11.4867 131.38 9.26363 132.184 7.24112 131.978C5.40673 131.79 3.78416 131.131 1.82317 129.777C1.24244 129.375 1.22926 129.383 0.36779 130.668C0.0713573 131.11 -0.0268492 131.314 0.00607232 131.418C0.0584537 131.584 0.70105 132.111 1.40391 132.565C3.70625 134.052 6.90145 134.783 9.42503 134.402C11.8032 134.042 13.4856 133.103 14.5452 131.544C14.8594 131.082 15.2782 130.156 15.4219 129.606C15.5976 128.934 15.6389 127.462 15.5004 126.808C15.3798 126.237 15.0376 125.455 14.6798 124.932C14.0978 124.082 12.8893 123.137 11.468 122.421C10.492 121.93 9.67222 121.606 7.9603 121.036C6.35315 120.5 5.10158 119.906 4.44259 119.365C3.91808 118.935 3.441 118.27 3.28957 117.758C2.87031 116.341 3.71706 114.754 5.29625 113.997C6.03656 113.642 6.69422 113.5 7.59873 113.5C9.14429 113.5 10.7151 113.945 12.1968 114.802C13.0569 115.299 13.0623 115.3 13.3575 114.987C13.779 114.54 14.3423 113.648 14.3423 113.427C14.3423 113.159 13.9372 112.851 12.9217 112.347C11.5832 111.682 10.116 111.281 8.4385 111.121C7.57683 111.039 7.18937 111.041 6.49558 111.129ZM18.1486 111.159C18.0499 111.258 18.039 112.407 18.039 122.753C18.039 130.536 18.0623 134.281 18.1112 134.373C18.1781 134.498 18.2677 134.508 19.3233 134.508C20.169 134.508 20.4824 134.485 20.5378 134.418C20.5885 134.357 20.6201 132.987 20.636 130.164C20.6575 126.372 20.6709 125.965 20.7859 125.615C21.271 124.135 22.3589 123.057 23.7933 122.632C24.0708 122.55 24.4468 122.509 24.9093 122.509C25.7169 122.509 26.2027 122.63 26.927 123.01C27.8755 123.509 28.6189 124.392 28.9725 125.44L29.1616 126L29.1977 130.236L29.2337 134.473L30.438 134.492L31.6422 134.511L31.7161 134.317C31.7664 134.185 31.7813 132.787 31.7626 129.956L31.7351 125.79L31.5499 125.099C30.8843 122.614 29.0061 120.769 26.4977 120.137C26.0057 120.013 25.6877 119.983 24.8744 119.983C23.9902 119.984 23.7754 120.009 23.1656 120.176C22.3743 120.394 21.485 120.803 21.0102 121.166C20.8332 121.302 20.6729 121.413 20.654 121.413C20.6351 121.413 20.6197 119.114 20.6197 116.304C20.6197 111.324 20.6163 111.192 20.4848 111.122C20.409 111.081 19.8916 111.049 19.3041 111.049C18.4463 111.049 18.2385 111.069 18.1486 111.159ZM40.2598 119.875C38.2748 120.189 36.5622 121.197 35.39 122.744C34.9636 123.306 34.4131 124.428 34.2258 125.116C33.1703 128.995 35.473 132.932 39.4187 133.995C40.0443 134.164 40.2342 134.183 41.3003 134.183C42.3663 134.183 42.5562 134.164 43.1819 133.995C46.16 133.193 48.255 130.768 48.5862 127.74C48.8253 125.554 48.0006 123.365 46.3533 121.811C45.3792 120.892 44.1698 120.257 42.8547 119.972C42.2391 119.838 40.8264 119.786 40.2598 119.875ZM51.3964 119.875L51.2395 119.938V130.927C51.2395 140.883 51.2499 141.92 51.3498 141.958C51.4935 142.014 53.4267 142.014 53.5704 141.958C53.6694 141.92 53.6807 141.445 53.6807 137.302C53.6807 134.764 53.7042 132.688 53.733 132.689C53.7618 132.69 53.9736 132.835 54.2038 133.01C54.7375 133.417 55.8661 133.97 56.5402 134.155C60.2926 135.185 64.2426 133.131 65.4685 129.512C66.0806 127.705 65.9823 125.808 65.1877 124.093C64.4196 122.435 62.9037 120.996 61.2491 120.353C59.5448 119.691 57.4639 119.693 55.8098 120.358C55.1631 120.618 54.545 120.975 54.0867 121.354C53.9072 121.502 53.7424 121.623 53.7205 121.623C53.6986 121.623 53.6807 121.244 53.6807 120.781C53.6807 119.942 53.6801 119.939 53.5018 119.871C53.2787 119.786 51.6094 119.789 51.3964 119.875ZM74.3264 119.879C74.077 119.917 73.5699 120.052 73.1994 120.179C71.4238 120.787 70.0464 122.019 69.1979 123.759C68.4221 125.35 68.2551 126.794 68.6374 128.608C69.1445 131.014 70.9546 133.033 73.3403 133.853C74.2173 134.154 75.1448 134.255 76.6281 134.21C77.6088 134.18 77.8975 134.143 78.581 133.965C79.5409 133.713 80.3588 133.344 81.1618 132.797C82.1168 132.147 82.1708 131.999 81.7131 131.28C80.8826 129.976 80.8175 129.926 80.4228 130.276C79.1448 131.412 77.269 131.984 75.4947 131.78C74.5793 131.674 73.6659 131.369 73.0628 130.966C72.1535 130.36 71.3761 129.329 71.0897 128.351C71.0285 128.141 70.9784 127.96 70.9784 127.948C70.9784 127.936 73.4223 127.926 76.4094 127.926H81.8404L82.0326 127.774C82.3463 127.526 82.4025 127.285 82.3398 126.455C82.1978 124.577 81.4645 123.03 80.0968 121.722C79.1883 120.853 78.2458 120.332 76.9937 120.006C76.3577 119.841 75.0018 119.776 74.3264 119.879ZM91.0531 119.873C90.3402 119.987 89.7865 120.158 89.1356 120.466C88.3084 120.858 87.9456 121.11 87.2747 121.759C86.595 122.416 86.2126 122.946 85.8033 123.798C84.622 126.257 84.9043 129.191 86.5314 131.365C87.4071 132.535 88.7061 133.449 90.1365 133.902C91.6367 134.377 94.0633 134.344 95.7044 133.827C96.9167 133.445 98.4005 132.538 98.5985 132.058C98.6754 131.872 98.6597 131.815 98.4205 131.413C97.9308 130.59 97.5521 130.096 97.4101 130.096C97.3355 130.096 97.0795 130.254 96.8412 130.447C95.5707 131.475 93.7624 131.979 92.0724 131.777C90.8406 131.629 89.9782 131.267 89.1338 130.543C88.4988 129.998 87.801 128.868 87.6797 128.188L87.6328 127.926L93.0288 127.925C98.254 127.925 98.4316 127.921 98.6475 127.789C98.9902 127.579 99.0584 127.254 98.957 126.315C98.8213 125.059 98.4696 124.023 97.8529 123.064C96.5733 121.073 94.5585 119.912 92.2518 119.836C91.8107 119.822 91.2712 119.839 91.0531 119.873ZM76.384 122.403C76.5758 122.444 77.0281 122.619 77.3891 122.792C78.2738 123.218 78.9778 123.908 79.4098 124.775L79.7064 125.37L75.4708 125.388C73.1413 125.398 71.2232 125.394 71.2084 125.379C71.1519 125.322 71.4733 124.594 71.7189 124.223C72.7189 122.711 74.5171 122.009 76.384 122.403ZM93.1237 122.437C94.31 122.726 95.5131 123.701 96.0741 124.827L96.3618 125.405H92.0759H87.7899L87.9314 125.044C88.3218 124.05 89.0979 123.203 90.0306 122.754C91.026 122.274 92.0325 122.171 93.1237 122.437ZM42.5481 122.462C43.3996 122.68 44.0032 123.035 44.6901 123.721C45.6427 124.671 46.079 125.707 46.077 127.012C46.0758 127.823 45.9422 128.43 45.6213 129.083C45.0162 130.314 43.8788 131.24 42.5209 131.607C41.9109 131.772 40.6942 131.773 40.0797 131.609C38.3809 131.155 37.0666 129.839 36.6325 128.157C36.4924 127.614 36.4912 126.492 36.63 125.901C37.0099 124.283 38.3779 122.898 40.025 122.465C40.7289 122.28 41.8342 122.278 42.5481 122.462ZM59.1624 122.399C60.9417 122.647 62.3901 123.827 63.0453 125.561C63.2535 126.112 63.2643 126.189 63.2663 127.155C63.2682 128.129 63.2593 128.194 63.0473 128.75C62.5848 129.963 61.8002 130.843 60.6905 131.395C59.782 131.846 59.3337 131.942 58.319 131.899C57.6071 131.87 57.3943 131.832 56.895 131.646C55.7155 131.208 54.7554 130.36 54.2373 129.298C53.5176 127.824 53.5374 126.344 54.2964 124.879C54.6264 124.243 55.497 123.35 56.1329 122.997C57.143 122.435 58.0883 122.249 59.1624 122.399Z" fill="white"/>
</svg>
