<svg width="36" height="32" viewBox="0 0 36 32" fill="none" xmlns="http://www.w3.org/2000/svg">
<g id="fa-regular:star" clip-path="url(#clip0_623_88)">
<path id="Vector" d="M33.0063 10.7187L23.875 9.3875L19.7938 1.1125C19.0625 -0.362501 16.9438 -0.381251 16.2063 1.1125L12.125 9.3875L2.99378 10.7187C1.35628 10.9562 0.70003 12.975 1.88753 14.1312L8.49378 20.5687L6.93128 29.6625C6.65003 31.3062 8.38128 32.5375 9.83128 31.7687L18 27.475L26.1688 31.7687C27.6188 32.5312 29.35 31.3062 29.0688 29.6625L27.5063 20.5687L34.1125 14.1312C35.3 12.975 34.6438 10.9562 33.0063 10.7187ZM24.2875 19.5187L25.7688 28.1687L18 24.0875L10.2313 28.1687L11.7125 19.5187L5.42503 13.3937L14.1125 12.1312L18 4.25625L21.8875 12.1312L30.575 13.3937L24.2875 19.5187Z" fill="black"/>
</g>
<defs>
<clipPath id="clip0_623_88">
<rect width="36" height="32" fill="white"/>
</clipPath>
</defs>
</svg>
