<svg width="34" height="34" viewBox="0 0 34 34" fill="none" xmlns="http://www.w3.org/2000/svg">
<g id="icon-park-outline:wallet" clip-path="url(#clip0_623_74)">
<g id="Group">
<path id="Vector" d="M12.7372 8.47802L22.5143 2.83331L25.7811 8.49219L12.7372 8.47802V8.47802Z" stroke="black" stroke-width="4" stroke-linecap="round" stroke-linejoin="round"/>
<path id="Vector_2" d="M2.83331 9.91667C2.83331 9.54094 2.98257 9.18061 3.24825 8.91493C3.51392 8.64926 3.87426 8.5 4.24998 8.5H29.75C30.1257 8.5 30.486 8.64926 30.7517 8.91493C31.0174 9.18061 31.1666 9.54094 31.1666 9.91667V29.75C31.1666 30.1257 31.0174 30.4861 30.7517 30.7517C30.486 31.0174 30.1257 31.1667 29.75 31.1667H4.24998C3.87426 31.1667 3.51392 31.0174 3.24825 30.7517C2.98257 30.4861 2.83331 30.1257 2.83331 29.75V9.91667Z" stroke="black" stroke-width="4" stroke-linejoin="round"/>
<path id="Vector_3" d="M24.9688 23.375H31.1667V16.2916H24.9688C22.9146 16.2916 21.25 17.8776 21.25 19.8333C21.25 21.789 22.9146 23.375 24.9688 23.375Z" stroke="black" stroke-width="4" stroke-linejoin="round"/>
<path id="Vector_4" d="M31.1666 11.6875V28.6875" stroke="black" stroke-width="4" stroke-linecap="round"/>
</g>
</g>
<defs>
<clipPath id="clip0_623_74">
<rect width="34" height="34" fill="white"/>
</clipPath>
</defs>
</svg>
