<svg width="46" height="46" viewBox="0 0 46 46" fill="none" xmlns="http://www.w3.org/2000/svg">
<g id="akar-icons:shipping-box-01">
<g id="Group">
<path id="Vector" d="M21.1389 4.86832C21.7083 4.55215 22.3488 4.38623 23 4.38623C23.6512 4.38623 24.2917 4.55215 24.8611 4.86832L39.2648 12.8685C39.5635 13.0346 39.8123 13.2774 39.9855 13.572C40.1587 13.8665 40.25 14.202 40.25 14.5437V30.3274C40.2498 31.011 40.0669 31.6821 39.7201 32.2712C39.3733 32.8602 38.8754 33.3459 38.2778 33.6777L24.8611 41.1336C24.2917 41.4498 23.6512 41.6157 23 41.6157C22.3488 41.6157 21.7083 41.4498 21.1389 41.1336L7.72225 33.6777C7.12493 33.346 6.62713 32.8607 6.28037 32.272C5.93361 31.6833 5.7505 31.0126 5.75 30.3293V14.5437C5.74999 14.202 5.84131 13.8665 6.01453 13.572C6.18774 13.2774 6.43654 13.0346 6.73517 12.8685L21.1408 4.86832H21.1389Z" stroke="black" stroke-width="2" stroke-linecap="round" stroke-linejoin="round"/>
<path id="Vector_2" d="M23 23V42.1667M5.75 13.4167L23 23L5.75 13.4167ZM23 23L40.25 13.4167L23 23Z" stroke="black" stroke-width="2" stroke-linejoin="round"/>
<path id="Vector_3" d="M14.375 18.2083L31.625 8.625" stroke="black" stroke-width="2" stroke-linecap="round" stroke-linejoin="round"/>
<path id="Vector_4" d="M11.5 23.6287L17.25 26.8333" stroke="black" stroke-width="2" stroke-linecap="round" stroke-linejoin="round"/>
</g>
</g>
</svg>
