<svg width="6" height="6" viewBox="0 0 6 6" fill="none" xmlns="http://www.w3.org/2000/svg">
<g id="carbon:delivery-truck">
<path id="Vector" d="M5.61 3.11437L5.0475 1.80187C5.03315 1.76798 5.00914 1.73907 4.97846 1.71873C4.94779 1.69839 4.9118 1.68753 4.875 1.6875H4.3125V1.3125C4.3125 1.26277 4.29275 1.21508 4.25758 1.17992C4.22242 1.14475 4.17473 1.125 4.125 1.125H0.5625C0.512772 1.125 0.465081 1.14475 0.429917 1.17992C0.394754 1.21508 0.375 1.26277 0.375 1.3125V4.5C0.375 4.54973 0.394754 4.59742 0.429917 4.63258C0.465081 4.66775 0.512772 4.6875 0.5625 4.6875H0.96375C1.00693 4.84638 1.10119 4.98664 1.23199 5.08664C1.36279 5.18663 1.52286 5.24081 1.6875 5.24081C1.85214 5.24081 2.01221 5.18663 2.14301 5.08664C2.27381 4.98664 2.36807 4.84638 2.41125 4.6875H3.58875C3.63193 4.84638 3.72619 4.98664 3.85699 5.08664C3.98779 5.18663 4.14786 5.24081 4.3125 5.24081C4.47714 5.24081 4.63721 5.18663 4.76801 5.08664C4.89881 4.98664 4.99307 4.84638 5.03625 4.6875H5.4375C5.48723 4.6875 5.53492 4.66775 5.57008 4.63258C5.60525 4.59742 5.625 4.54973 5.625 4.5V3.1875C5.62495 3.16237 5.61985 3.1375 5.61 3.11437ZM4.3125 2.0625H4.75125L5.1525 3H4.3125V2.0625ZM1.6875 4.875C1.61333 4.875 1.54083 4.85301 1.47916 4.8118C1.41749 4.7706 1.36943 4.71203 1.34105 4.64351C1.31266 4.57498 1.30524 4.49958 1.31971 4.42684C1.33417 4.3541 1.36989 4.28728 1.42233 4.23483C1.47478 4.18239 1.5416 4.14667 1.61434 4.13221C1.68708 4.11774 1.76248 4.12516 1.83101 4.15354C1.89953 4.18193 1.9581 4.22999 1.9993 4.29166C2.04051 4.35333 2.0625 4.42583 2.0625 4.5C2.0625 4.59946 2.02299 4.69484 1.95266 4.76516C1.88234 4.83549 1.78696 4.875 1.6875 4.875ZM3.58875 4.3125H2.41125C2.36807 4.15362 2.27381 4.01336 2.14301 3.91336C2.01221 3.81337 1.85214 3.75919 1.6875 3.75919C1.52286 3.75919 1.36279 3.81337 1.23199 3.91336C1.10119 4.01336 1.00693 4.15362 0.96375 4.3125H0.75V1.5H3.9375V3.855C3.85212 3.90455 3.77736 3.97047 3.71752 4.04898C3.65767 4.12749 3.61391 4.21704 3.58875 4.3125ZM4.3125 4.875C4.23833 4.875 4.16583 4.85301 4.10416 4.8118C4.04249 4.7706 3.99443 4.71203 3.96605 4.64351C3.93766 4.57498 3.93024 4.49958 3.94471 4.42684C3.95917 4.3541 3.99489 4.28728 4.04734 4.23483C4.09978 4.18239 4.1666 4.14667 4.23934 4.13221C4.31208 4.11774 4.38748 4.12516 4.45601 4.15354C4.52453 4.18193 4.5831 4.22999 4.6243 4.29166C4.66551 4.35333 4.6875 4.42583 4.6875 4.5C4.6875 4.59946 4.64799 4.69484 4.57766 4.76516C4.50734 4.83549 4.41196 4.875 4.3125 4.875ZM5.25 4.3125H5.03625C4.99479 4.15191 4.90126 4.00959 4.77031 3.90782C4.63935 3.80604 4.47835 3.75054 4.3125 3.75V3.375H5.25V4.3125Z" fill="#F8F8F8"/>
</g>
</svg>
